<svg width="18" height="20" viewBox="0 0 18 20" fill="none" xmlns="http://www.w3.org/2000/svg">
<path d="M3 0C3.79565 0 4.55871 0.316071 5.12132 0.87868C5.68393 1.44129 6 2.20435 6 3C6 4.28 5.19 5.38 4.06 5.81C4.15 6.27 4.39 6.83 5 7.63C6 8.92 8 10.83 9 12.17C10 10.83 12 8.92 13 7.63C13.61 6.83 13.85 6.27 13.94 5.81C12.81 5.38 12 4.28 12 3C12 2.20435 12.3161 1.44129 12.8787 0.87868C13.4413 0.316071 14.2044 0 15 0C15.7956 0 16.5587 0.316071 17.1213 0.87868C17.6839 1.44129 18 2.20435 18 3C18 4.32 17.14 5.45 15.95 5.85C15.87 6.37 15.64 7 15 7.83C14 9.17 12 11.08 11 12.38C10.39 13.17 10.15 13.73 10.06 14.19C11.19 14.62 12 15.72 12 17C12 17.7956 11.6839 18.5587 11.1213 19.1213C10.5587 19.6839 9.79565 20 9 20C8.20435 20 7.44129 19.6839 6.87868 19.1213C6.31607 18.5587 6 17.7956 6 17C6 15.72 6.81 14.62 7.94 14.19C7.85 13.73 7.61 13.17 7 12.38C6 11.08 4 9.17 3 7.83C2.36 7 2.13 6.37 2.05 5.85C0.86 5.45 0 4.32 0 3C0 2.20435 0.316071 1.44129 0.87868 0.87868C1.44129 0.316071 2.20435 0 3 0ZM3 2C2.73478 2 2.48043 2.10536 2.29289 2.29289C2.10536 2.48043 2 2.73478 2 3C2 3.26522 2.10536 3.51957 2.29289 3.70711C2.48043 3.89464 2.73478 4 3 4C3.26522 4 3.51957 3.89464 3.70711 3.70711C3.89464 3.51957 4 3.26522 4 3C4 2.73478 3.89464 2.48043 3.70711 2.29289C3.51957 2.10536 3.26522 2 3 2ZM15 2C14.7348 2 14.4804 2.10536 14.2929 2.29289C14.1054 2.48043 14 2.73478 14 3C14 3.26522 14.1054 3.51957 14.2929 3.70711C14.4804 3.89464 14.7348 4 15 4C15.2652 4 15.5196 3.89464 15.7071 3.70711C15.8946 3.51957 16 3.26522 16 3C16 2.73478 15.8946 2.48043 15.7071 2.29289C15.5196 2.10536 15.2652 2 15 2ZM9 16C8.73478 16 8.48043 16.1054 8.29289 16.2929C8.10536 16.4804 8 16.7348 8 17C8 17.2652 8.10536 17.5196 8.29289 17.7071C8.48043 17.8946 8.73478 18 9 18C9.26522 18 9.51957 17.8946 9.70711 17.7071C9.89464 17.5196 10 17.2652 10 17C10 16.7348 9.89464 16.4804 9.70711 16.2929C9.51957 16.1054 9.26522 16 9 16Z" fill="black"/>
</svg>
