<svg width="30" height="30" viewBox="0 0 30 30" fill="none" xmlns="http://www.w3.org/2000/svg">
<path d="M16.875 10H15V16.25L20.35 19.425L21.25 17.9125L16.875 15.3125V10ZM16.25 3.75C13.2663 3.75 10.4048 4.93526 8.29505 7.04505C6.18526 9.15483 5 12.0163 5 15H1.25L6.2 20.0375L11.25 15H7.5C7.5 12.6794 8.42187 10.4538 10.0628 8.81282C11.7038 7.17187 13.9294 6.25 16.25 6.25C18.5706 6.25 20.7962 7.17187 22.4372 8.81282C24.0781 10.4538 25 12.6794 25 15C25 17.3206 24.0781 19.5462 22.4372 21.1872C20.7962 22.8281 18.5706 23.75 16.25 23.75C13.8375 23.75 11.65 22.7625 10.075 21.175L8.3 22.95C10.3375 25 13.125 26.25 16.25 26.25C19.2337 26.25 22.0952 25.0647 24.205 22.955C26.3147 20.8452 27.5 17.9837 27.5 15C27.5 12.0163 26.3147 9.15483 24.205 7.04505C22.0952 4.93526 19.2337 3.75 16.25 3.75Z" fill="white"/>
</svg>
