<svg width="35" height="34" viewBox="0 0 35 34" fill="none" xmlns="http://www.w3.org/2000/svg">
<path d="M14.2083 29.3958H20.0417C20.0417 31 18.7292 32.3125 17.125 32.3125C15.5208 32.3125 14.2083 31 14.2083 29.3958ZM30.25 26.4792V27.9375H4V26.4792L6.91667 23.5625V14.8125C6.91667 10.2917 9.83333 6.35417 14.2083 5.04167V4.60417C14.2083 3 15.5208 1.6875 17.125 1.6875C18.7292 1.6875 20.0417 3 20.0417 4.60417V5.04167C24.4167 6.35417 27.3333 10.2917 27.3333 14.8125V23.5625L30.25 26.4792ZM24.4167 14.8125C24.4167 10.7292 21.2083 7.52083 17.125 7.52083C13.0417 7.52083 9.83333 10.7292 9.83333 14.8125V25.0208H24.4167V14.8125Z" fill="black"/>
</svg>
