<svg width="30" height="30" viewBox="0 0 30 30" fill="none" xmlns="http://www.w3.org/2000/svg">
<path d="M11.25 6.25H18.75L15 10L11.25 6.25ZM13.125 18.325C12.75 18.75 12.5 19.375 12.5 20C12.5 20.663 12.7634 21.2989 13.2322 21.7678C13.7011 22.2366 14.337 22.5 15 22.5C15.663 22.5 16.2989 22.2366 16.7678 21.7678C17.2366 21.2989 17.5 20.663 17.5 20C17.5 19.3125 17.225 18.6875 16.7625 18.2375L18.5375 16.4625C19.4375 17.375 20 18.625 20 20C20 21.3261 19.4732 22.5979 18.5355 23.5355C17.5979 24.4732 16.3261 25 15 25C13.6739 25 12.4021 24.4732 11.4645 23.5355C10.5268 22.5979 10 21.3261 10 20C10 18.6625 10.525 17.45 11.375 16.5625L11.3625 16.55L20.2125 7.7125C21.1125 6.8125 22.3625 6.25 23.75 6.25C25.0761 6.25 26.3478 6.77678 27.2855 7.71447C28.2232 8.65215 28.75 9.92392 28.75 11.25C28.75 12.5761 28.2232 13.8479 27.2855 14.7855C26.3478 15.7232 25.0761 16.25 23.75 16.25C22.375 16.25 21.125 15.6875 20.2125 14.7875L21.9875 13.0125C22.4375 13.475 23.0625 13.75 23.75 13.75C24.413 13.75 25.0489 13.4866 25.5178 13.0178C25.9866 12.5489 26.25 11.913 26.25 11.25C26.25 10.587 25.9866 9.95107 25.5178 9.48223C25.0489 9.01339 24.413 8.75 23.75 8.75C23.0625 8.75 22.4375 9.025 21.9875 9.4875L13.125 18.325ZM8.0125 9.4875C7.5625 9.025 6.9375 8.75 6.25 8.75C5.58696 8.75 4.95107 9.01339 4.48223 9.48223C4.01339 9.95107 3.75 10.587 3.75 11.25C3.75 11.913 4.01339 12.5489 4.48223 13.0178C4.95107 13.4866 5.58696 13.75 6.25 13.75C6.9375 13.75 7.5625 13.475 8.0125 13.0125L9.7875 14.7875C8.875 15.6875 7.625 16.25 6.25 16.25C4.92392 16.25 3.65215 15.7232 2.71447 14.7855C1.77678 13.8479 1.25 12.5761 1.25 11.25C1.25 9.92392 1.77678 8.65215 2.71447 7.71447C3.65215 6.77678 4.92392 6.25 6.25 6.25C7.6375 6.25 8.8875 6.8125 9.7875 7.7125L13.2375 11.1625L11.4625 12.9375L8.0125 9.4875Z" fill="white"/>
</svg>
