<svg width="30" height="30" viewBox="0 0 30 30" fill="none" xmlns="http://www.w3.org/2000/svg">
<path d="M2.5 3.75H27.5C28.8125 3.75 30 4.9375 30 6.25V23.75C30 25.0625 28.8125 26.25 27.5 26.25H2.5C1.1875 26.25 0 25.0625 0 23.75V6.25C0 4.9375 1.1875 3.75 2.5 3.75ZM17.5 7.5V8.75H27.5V7.5H17.5ZM17.5 10V11.25H26.875H27.5V10H17.5ZM17.5 12.5V13.75H26.25V12.5H17.5ZM10 17.3875C7.5 17.3875 2.5 18.75 2.5 21.25V22.5H17.5V21.25C17.5 18.75 12.5 17.3875 10 17.3875ZM10 7.5C9.00544 7.5 8.05161 7.89509 7.34835 8.59835C6.64509 9.30161 6.25 10.2554 6.25 11.25C6.25 12.2446 6.64509 13.1984 7.34835 13.9017C8.05161 14.6049 9.00544 15 10 15C10.9946 15 11.9484 14.6049 12.6517 13.9017C13.3549 13.1984 13.75 12.2446 13.75 11.25C13.75 10.2554 13.3549 9.30161 12.6517 8.59835C11.9484 7.89509 10.9946 7.5 10 7.5Z" fill="white"/>
</svg>
