<svg width="50" height="52" viewBox="0 0 50 52" fill="none" xmlns="http://www.w3.org/2000/svg">
<path d="M21.1429 10C24.0981 10 26.9324 11.2357 29.022 13.4352C31.1117 15.6347 32.2857 18.6179 32.2857 21.7285C32.2857 24.6335 31.2743 27.304 29.6114 29.361L30.0743 29.8482H31.4286L40 38.8701L37.4286 41.5767L28.8571 32.5548V31.1293L28.3943 30.6421C26.44 32.3924 23.9029 33.457 21.1429 33.457C18.1876 33.457 15.3534 32.2213 13.2637 30.0218C11.174 27.8223 10 24.8391 10 21.7285C10 18.6179 11.174 15.6347 13.2637 13.4352C15.3534 11.2357 18.1876 10 21.1429 10ZM21.1429 13.6088C16.8571 13.6088 13.4286 17.2175 13.4286 21.7285C13.4286 26.2394 16.8571 29.8482 21.1429 29.8482C25.4286 29.8482 28.8571 26.2394 28.8571 21.7285C28.8571 17.2175 25.4286 13.6088 21.1429 13.6088Z" fill="black"/>
</svg>
