<svg width="30" height="30" viewBox="0 0 30 30" fill="none" xmlns="http://www.w3.org/2000/svg">
<path d="M23.4 18.4499C23.8375 17.3874 24.075 16.2499 24.075 14.9999C24.075 14.0999 23.9375 13.2374 23.7 12.4374C22.8875 12.6249 22.0375 12.7249 21.15 12.7249C17.325 12.7249 13.9375 10.8374 11.875 7.9249C10.7625 10.6249 8.6375 12.8249 5.9625 14.0249C5.9125 14.3374 5.9125 14.6749 5.9125 14.9999C5.9125 17.4101 6.86993 19.7215 8.57417 21.4257C10.2784 23.13 12.5898 24.0874 15 24.0874C16.3125 24.0874 17.575 23.7999 18.7125 23.2874C19.425 24.6499 19.75 25.3249 19.725 25.3249C17.675 26.0124 16.0875 26.3499 15 26.3499C11.975 26.3499 9.0875 25.1624 6.9625 23.0249C5.6625 21.7249 4.7 20.1374 4.1625 18.4124H2.5V12.7249H3.8625C4.9125 7.5499 9.5 3.6499 15 3.6499C18 3.6499 20.8875 4.8374 23.025 6.9749C24.6125 8.5499 25.675 10.5624 26.1125 12.7249H27.5V18.3374V18.3624V18.4124H27.425L22.975 22.4999L16.35 21.7499V19.6624H22.3875L23.4 18.4499ZM11.5875 14.7124C11.9625 14.7124 12.325 14.8624 12.5875 15.1374C12.85 15.3999 13 15.7624 13 16.1374C13 16.5124 12.85 16.8749 12.5875 17.1374C12.325 17.3999 11.9625 17.5499 11.5875 17.5499C10.8 17.5499 10.1625 16.9249 10.1625 16.1374C10.1625 15.3499 10.8 14.7124 11.5875 14.7124ZM18.4 14.7124C19.1875 14.7124 19.8125 15.3499 19.8125 16.1374C19.8125 16.9249 19.1875 17.5499 18.4 17.5499C17.6125 17.5499 16.975 16.9249 16.975 16.1374C16.975 15.7595 17.1251 15.397 17.3924 15.1298C17.6596 14.8625 18.0221 14.7124 18.4 14.7124Z" fill="white"/>
</svg>
