<svg width="22" height="20" viewBox="0 0 22 20" fill="none" xmlns="http://www.w3.org/2000/svg">
<path d="M11 0C6 0 1.73 3.45556 0 8.33333C1.73 13.2111 6 16.6667 11 16.6667C11.36 16.6667 11.72 16.6667 12.08 16.6111C12.03 16.2556 12 15.9111 12 15.5556C12 15.1556 12.04 14.7556 12.1 14.3556C11.74 14.4 11.37 14.4444 11 14.4444C7.24 14.4444 3.83 12.0667 2.18 8.33333C3.83 4.6 7.24 2.22222 11 2.22222C14.76 2.22222 18.17 4.6 19.82 8.33333C19.7 8.6 19.56 8.83333 19.43 9.08889C20.09 9.26667 20.72 9.56667 21.29 10C21.56 9.44444 21.8 8.88889 22 8.33333C20.27 3.45556 16 0 11 0ZM11 5C10.2044 5 9.44129 5.35119 8.87868 5.97631C8.31607 6.60143 8 7.44928 8 8.33333C8 9.21739 8.31607 10.0652 8.87868 10.6904C9.44129 11.3155 10.2044 11.6667 11 11.6667C11.7956 11.6667 12.5587 11.3155 13.1213 10.6904C13.6839 10.0652 14 9.21739 14 8.33333C14 7.44928 13.6839 6.60143 13.1213 5.97631C12.5587 5.35119 11.7956 5 11 5ZM17 11.1111V14.4444H14V16.6667H17V20H19V16.6667H22V14.4444H19V11.1111H17Z" fill="black"/>
</svg>
